<svg width="421" height="155" viewBox="0 0 421 155" fill="none" xmlns="http://www.w3.org/2000/svg">
<path d="M123.5 58L29.5 47C29.5 47 29.4099 130 29.5 132C29.5902 134 30.5 134 31 134H34C35.9527 134 37.0474 134.012 39 134C70.9998 133.809 120.5 125.5 120.5 125.5C120.5 125.5 120.237 126.133 120 126.5C119.55 127.196 119.127 127.459 118.5 128C117.434 128.92 116.759 129.37 115.5 130C106.5 134.5 91.0334 137.248 78 140C56.3062 144.58 37 148.5 37 148.5C37 148.5 32.3856 149.002 29.5 148.5C26.6402 148.002 24.9153 147.61 22.5 146C20.0848 144.39 18.7058 143.349 17 141C15.9176 139.51 15 136.5 15 136.5V26.5C15 22.5 18.5 20.3698 21 19.5C23.0286 18.7942 26 19 26.5 19H29.5L35 19.5L39 20V12.5C39 11.1632 39.8468 9.77071 41 9C42.2585 8.1589 43.5 8 46 8C48.5 8 49.7869 8.27721 51 9C51.4964 9.29575 51.9928 9.66751 52.3669 10.1504C52.5 10.3222 53 10.9041 53 12V21.5L92.5 27V18.5C92.5 17.5 93.5882 16.2059 95 15.5C96.4118 14.7941 99.5 14.7432 102 15.5C104.5 16.2568 105.5 18.0416 105.5 19.5V29C105.5 29 111.251 29.8501 112 30C114.5 30.5 117.241 31.9084 117.241 31.9084C117.241 31.9084 119 32.5 120.5 34.5C121.784 36.2118 123.5 39.5 123.5 41.5V58Z" fill="#2E86C1" stroke="#2E86C1"/>
<path d="M78.7046 109.239C75.9205 109.239 73.4489 108.775 71.2898 107.847C69.1497 106.9 67.4546 105.479 66.2046 103.585C64.9735 101.672 64.358 99.2765 64.358 96.3977C64.358 93.9735 64.7841 91.928 65.6364 90.2614C66.4887 88.5947 67.6629 87.2405 69.1591 86.1989C70.6553 85.1572 72.3788 84.3712 74.3296 83.8409C76.2803 83.2917 78.3637 82.9223 80.5796 82.733C83.0606 82.5057 85.0587 82.2689 86.5739 82.0227C88.089 81.7576 89.1875 81.3883 89.8694 80.9148C90.5701 80.4223 90.9205 79.7311 90.9205 78.8409V78.6989C90.9205 77.2405 90.4186 76.1136 89.4148 75.3182C88.411 74.5227 87.0568 74.125 85.3523 74.125C83.5152 74.125 82.0379 74.5227 80.9205 75.3182C79.8031 76.1136 79.0928 77.2121 78.7898 78.6136L65.9773 78.1591C66.3561 75.5076 67.3315 73.1402 68.9034 71.0568C70.4943 68.9545 72.6724 67.3068 75.4375 66.1136C78.2216 64.9015 81.5644 64.2955 85.4659 64.2955C88.25 64.2955 90.8163 64.6269 93.1648 65.2898C95.5133 65.9337 97.5587 66.8807 99.3012 68.1307C101.044 69.3617 102.388 70.8769 103.335 72.6761C104.301 74.4754 104.784 76.5303 104.784 78.8409V108.5H91.7159V102.42H91.375C90.5985 103.898 89.6042 105.148 88.3921 106.17C87.1989 107.193 85.7879 107.96 84.1591 108.472C82.5493 108.983 80.7311 109.239 78.7046 109.239ZM82.9944 100.148C84.4906 100.148 85.8353 99.8447 87.0284 99.2386C88.2406 98.6326 89.2065 97.7992 89.9262 96.7386C90.6459 95.6591 91.0057 94.4091 91.0057 92.9886V88.8409C90.608 89.0492 90.125 89.2386 89.5569 89.4091C89.0076 89.5795 88.4015 89.7405 87.7387 89.892C87.0758 90.0436 86.394 90.1761 85.6932 90.2898C84.9925 90.4034 84.3201 90.5076 83.6762 90.6023C82.3693 90.8106 81.2519 91.1326 80.3239 91.5682C79.4148 92.0038 78.714 92.572 78.2216 93.2727C77.7481 93.9545 77.5114 94.7689 77.5114 95.7159C77.5114 97.1553 78.0228 98.2538 79.0455 99.0114C80.0872 99.7689 81.4034 100.148 82.9944 100.148ZM133.619 125.773C129.472 125.773 125.92 125.195 122.966 124.04C120.011 122.884 117.691 121.303 116.006 119.295C114.32 117.288 113.307 115.015 112.966 112.477L126.119 111.739C126.366 112.629 126.82 113.405 127.483 114.068C128.165 114.731 129.045 115.242 130.125 115.602C131.224 115.962 132.511 116.142 133.989 116.142C136.318 116.142 138.241 115.574 139.756 114.438C141.29 113.32 142.057 111.36 142.057 108.557V100.886H141.574C141.025 102.231 140.191 103.434 139.074 104.494C137.956 105.555 136.564 106.388 134.898 106.994C133.25 107.6 131.356 107.903 129.216 107.903C126.034 107.903 123.117 107.165 120.466 105.688C117.833 104.191 115.722 101.881 114.131 98.7557C112.559 95.6117 111.773 91.5682 111.773 86.625C111.773 81.5303 112.587 77.3352 114.216 74.0398C115.845 70.7254 117.975 68.2727 120.608 66.6818C123.26 65.0909 126.11 64.2955 129.159 64.2955C131.451 64.2955 133.411 64.6932 135.04 65.4886C136.688 66.2652 138.042 67.2689 139.102 68.5C140.163 69.7311 140.968 71.0095 141.517 72.3352H141.915V64.8636H155.75V108.67C155.75 112.364 154.822 115.479 152.966 118.017C151.11 120.555 148.515 122.477 145.182 123.784C141.849 125.11 137.994 125.773 133.619 125.773ZM134.045 97.7898C135.731 97.7898 137.17 97.3447 138.364 96.4545C139.557 95.5644 140.475 94.286 141.119 92.6193C141.763 90.9527 142.085 88.9545 142.085 86.625C142.085 84.2576 141.763 82.2216 141.119 80.517C140.494 78.7936 139.576 77.4678 138.364 76.5398C137.17 75.6117 135.731 75.1477 134.045 75.1477C132.322 75.1477 130.864 75.6212 129.67 76.5682C128.477 77.5152 127.568 78.8504 126.943 80.5739C126.337 82.2784 126.034 84.2955 126.034 86.625C126.034 88.9545 126.347 90.9527 126.972 92.6193C127.597 94.286 128.496 95.5644 129.67 96.4545C130.864 97.3447 132.322 97.7898 134.045 97.7898ZM185.004 109.324C180.44 109.324 176.501 108.424 173.186 106.625C169.891 104.807 167.353 102.222 165.572 98.8693C163.811 95.4981 162.93 91.4924 162.93 86.8523C162.93 82.3447 163.821 78.4053 165.601 75.0341C167.381 71.6439 169.891 69.0114 173.129 67.1364C176.368 65.2424 180.184 64.2955 184.578 64.2955C187.684 64.2955 190.525 64.7784 193.101 65.7443C195.677 66.7102 197.902 68.1402 199.777 70.0341C201.652 71.928 203.11 74.267 204.152 77.0511C205.194 79.8163 205.715 82.9886 205.715 86.5682V90.0341H167.788V81.9659H192.788C192.769 80.4886 192.419 79.1723 191.737 78.017C191.055 76.8617 190.118 75.9621 188.925 75.3182C187.751 74.6553 186.396 74.3239 184.862 74.3239C183.309 74.3239 181.917 74.6742 180.686 75.375C179.455 76.0568 178.48 76.9943 177.76 78.1875C177.04 79.3617 176.661 80.697 176.624 82.1932V90.4034C176.624 92.1837 176.974 93.7462 177.675 95.0909C178.376 96.4167 179.37 97.4489 180.658 98.1875C181.946 98.9261 183.48 99.2955 185.26 99.2955C186.491 99.2955 187.608 99.125 188.612 98.7841C189.616 98.4432 190.478 97.9413 191.197 97.2784C191.917 96.6155 192.457 95.8011 192.817 94.8352L205.572 95.2045C205.042 98.0644 203.877 100.555 202.078 102.676C200.298 104.778 197.959 106.417 195.061 107.591C192.163 108.746 188.811 109.324 185.004 109.324ZM226.702 83.6136V108.5H212.81V64.8636H226.02V72.875H226.503C227.469 70.2045 229.117 68.1117 231.446 66.5966C233.776 65.0625 236.55 64.2955 239.77 64.2955C242.838 64.2955 245.499 64.9867 247.753 66.3693C250.026 67.733 251.787 69.6458 253.037 72.108C254.306 74.5511 254.931 77.411 254.912 80.6875V108.5H241.02V83.4148C241.039 80.9905 240.423 79.0966 239.173 77.733C237.942 76.3693 236.228 75.6875 234.031 75.6875C232.573 75.6875 231.285 76.0095 230.168 76.6534C229.069 77.2784 228.217 78.178 227.611 79.3523C227.024 80.5265 226.721 81.947 226.702 83.6136ZM279.45 109.125C276.231 109.125 273.304 108.292 270.672 106.625C268.039 104.958 265.937 102.458 264.365 99.125C262.793 95.7917 262.007 91.6534 262.007 86.7102C262.007 81.5777 262.822 77.3542 264.45 74.0398C266.079 70.7254 268.21 68.2727 270.842 66.6818C273.494 65.0909 276.344 64.2955 279.393 64.2955C281.685 64.2955 283.645 64.6932 285.274 65.4886C286.903 66.2652 288.248 67.2689 289.308 68.5C290.369 69.7311 291.174 71.0095 291.723 72.3352H292.007V50.3182H305.899V108.5H292.149V101.426H291.723C291.136 102.771 290.303 104.03 289.223 105.205C288.143 106.379 286.789 107.326 285.161 108.045C283.551 108.765 281.647 109.125 279.45 109.125ZM284.28 98.3011C285.965 98.3011 287.405 97.8277 288.598 96.8807C289.791 95.9148 290.71 94.5606 291.354 92.8182C291.998 91.0758 292.32 89.0303 292.32 86.6818C292.32 84.2955 291.998 82.2405 291.354 80.517C290.729 78.7936 289.81 77.4678 288.598 76.5398C287.405 75.6117 285.965 75.1477 284.28 75.1477C282.556 75.1477 281.098 75.6212 279.905 76.5682C278.712 77.5152 277.803 78.8504 277.178 80.5739C276.572 82.2973 276.268 84.3333 276.268 86.6818C276.268 89.0303 276.581 91.0758 277.206 92.8182C277.831 94.5606 278.731 95.9148 279.905 96.8807C281.098 97.8277 282.556 98.3011 284.28 98.3011ZM326.986 109.239C324.202 109.239 321.73 108.775 319.571 107.847C317.431 106.9 315.736 105.479 314.486 103.585C313.255 101.672 312.639 99.2765 312.639 96.3977C312.639 93.9735 313.065 91.928 313.918 90.2614C314.77 88.5947 315.944 87.2405 317.44 86.1989C318.937 85.1572 320.66 84.3712 322.611 83.8409C324.562 83.2917 326.645 82.9223 328.861 82.733C331.342 82.5057 333.34 82.2689 334.855 82.0227C336.37 81.7576 337.469 81.3883 338.151 80.9148C338.851 80.4223 339.202 79.7311 339.202 78.8409V78.6989C339.202 77.2405 338.7 76.1136 337.696 75.3182C336.692 74.5227 335.338 74.125 333.634 74.125C331.796 74.125 330.319 74.5227 329.202 75.3182C328.084 76.1136 327.374 77.2121 327.071 78.6136L314.259 78.1591C314.637 75.5076 315.613 73.1402 317.185 71.0568C318.776 68.9545 320.954 67.3068 323.719 66.1136C326.503 64.9015 329.846 64.2955 333.747 64.2955C336.531 64.2955 339.098 64.6269 341.446 65.2898C343.795 65.9337 345.84 66.8807 347.582 68.1307C349.325 69.3617 350.67 70.8769 351.617 72.6761C352.582 74.4754 353.065 76.5303 353.065 78.8409V108.5H339.997V102.42H339.656C338.88 103.898 337.885 105.148 336.673 106.17C335.48 107.193 334.069 107.96 332.44 108.472C330.831 108.983 329.012 109.239 326.986 109.239ZM331.276 100.148C332.772 100.148 334.117 99.8447 335.31 99.2386C336.522 98.6326 337.488 97.7992 338.207 96.7386C338.927 95.6591 339.287 94.4091 339.287 92.9886V88.8409C338.889 89.0492 338.406 89.2386 337.838 89.4091C337.289 89.5795 336.683 89.7405 336.02 89.892C335.357 90.0436 334.675 90.1761 333.974 90.2898C333.274 90.4034 332.601 90.5076 331.957 90.6023C330.651 90.8106 329.533 91.1326 328.605 91.5682C327.696 92.0038 326.995 92.572 326.503 93.2727C326.029 93.9545 325.793 94.7689 325.793 95.7159C325.793 97.1553 326.304 98.2538 327.327 99.0114C328.368 99.7689 329.685 100.148 331.276 100.148ZM368.492 124.864C366.825 124.864 365.253 124.731 363.776 124.466C362.298 124.22 361.029 123.888 359.969 123.472L363.037 113.386C364.401 113.841 365.632 114.106 366.73 114.182C367.848 114.258 368.804 114.078 369.599 113.642C370.414 113.225 371.039 112.477 371.474 111.398L372.014 110.091L356.503 64.8636H371.048L379.088 96H379.543L387.696 64.8636H402.327L385.878 112.676C385.082 115.063 383.956 117.165 382.497 118.983C381.058 120.82 379.192 122.259 376.901 123.301C374.628 124.343 371.825 124.864 368.492 124.864Z" fill="#36454F"/>
</svg>
