<?xml version="1.0" standalone="no"?>
<!DOCTYPE svg PUBLIC "-//W3C//DTD SVG 20010904//EN"
 "http://www.w3.org/TR/2001/REC-SVG-20010904/DTD/svg10.dtd">
<svg version="1.0" xmlns="http://www.w3.org/2000/svg"
 width="200.000000pt" height="200.000000pt" viewBox="0 0 200.000000 200.000000"
 preserveAspectRatio="xMidYMid meet">

<g transform="translate(0.000000,200.000000) scale(0.100000,-0.100000)"
fill="#000000" stroke="none">
<path d="M0 1000 l0 -1000 1000 0 1000 0 0 1000 0 1000 -1000 0 -1000 0 0
-1000z m1110 841 c0 -56 1 -59 28 -65 15 -4 34 -9 42 -11 10 -3 24 10 40 40
14 25 31 45 38 45 22 0 142 -74 142 -87 0 -8 -12 -32 -26 -55 l-26 -41 31 -30
30 -31 51 28 c28 15 53 26 55 24 15 -15 83 -144 79 -150 -11 -17 -24 -6 -59
52 l-36 59 -47 -26 -48 -26 -46 49 -47 49 25 42 c13 23 24 44 24 47 0 6 -83
56 -93 56 -3 0 -18 -20 -33 -45 -14 -25 -27 -45 -27 -45 -1 0 -29 9 -62 19
l-60 19 -3 56 -3 56 -59 0 -59 0 -3 -56 -3 -57 -50 -13 c-74 -19 -78 -18 -105
31 l-24 44 -48 -26 c-26 -14 -48 -31 -48 -37 0 -6 9 -26 20 -44 11 -18 20 -37
20 -43 0 -12 -79 -89 -92 -89 -5 0 -26 9 -48 20 -22 11 -41 20 -44 20 -2 0
-19 -25 -36 -55 -35 -61 -48 -73 -55 -53 -7 18 66 147 83 148 7 0 33 -11 56
-25 l42 -25 30 31 29 30 -27 49 -27 49 27 19 c34 23 119 72 126 72 3 0 17 -23
33 -50 19 -35 33 -48 43 -44 8 3 27 8 43 11 26 5 27 8 27 64 l0 59 90 0 90 0
0 -59z m-80 -47 c0 -16 -16 -19 -25 -4 -8 13 4 32 16 25 5 -4 9 -13 9 -21z
m-250 -79 c0 -8 -7 -15 -15 -15 -8 0 -15 7 -15 15 0 8 7 15 15 15 8 0 15 -7
15 -15z m510 0 c0 -8 -7 -15 -15 -15 -8 0 -15 7 -15 15 0 8 7 15 15 15 8 0 15
-7 15 -15z m-98 -62 c40 -19 88 -52 117 -81 66 -66 124 -182 92 -182 -5 0 -21
25 -36 56 -35 71 -109 145 -182 181 -53 26 -67 28 -168 28 -101 0 -114 -2
-165 -29 -71 -36 -145 -108 -177 -171 -31 -60 -29 -59 -42 -50 -30 18 64 155
144 210 86 60 144 76 255 72 82 -2 104 -7 162 -34z m-612 -149 c0 -16 -16 -19
-25 -4 -8 13 4 32 16 25 5 -4 9 -13 9 -21z m890 0 c0 -16 -16 -19 -25 -4 -8
13 4 32 16 25 5 -4 9 -13 9 -21z m-356 -23 c27 -17 36 -18 74 -8 36 10 45 9
52 -3 6 -8 10 -81 10 -161 0 -134 -2 -147 -20 -164 -16 -15 -26 -17 -48 -9
-27 9 -27 11 -30 107 -2 87 -5 98 -20 95 -14 -3 -17 -18 -20 -93 -3 -95 -11
-115 -47 -115 -41 0 -54 28 -57 125 -4 119 -22 117 -26 -1 -2 -77 -6 -95 -23
-110 -15 -14 -25 -16 -47 -8 -26 9 -27 12 -30 99 -3 109 -6 122 -27 105 -11
-9 -15 -33 -15 -89 0 -82 -9 -101 -46 -101 -42 0 -54 34 -54 157 0 128 10 150
64 139 50 -10 65 -8 92 13 20 16 35 19 68 15 29 -4 52 -1 72 9 37 21 41 21 78
-2z m-577 -114 c32 -36 36 -37 103 -37 l70 0 0 -55 0 -55 -73 0 c-69 0 -74 -2
-95 -29 -40 -55 -130 -64 -186 -20 -37 29 -32 39 18 39 36 0 48 5 65 26 26 33
26 39 0 75 -18 25 -27 29 -70 29 -45 0 -48 1 -38 19 23 37 61 52 118 48 47 -3
59 -9 88 -40z m1118 23 c41 -25 69 -90 60 -137 -13 -71 -89 -122 -161 -109
-20 4 -49 22 -69 41 -34 34 -36 35 -120 35 l-85 0 0 55 0 55 86 0 c83 0 86 1
111 31 15 17 36 35 47 39 38 15 98 11 131 -10z m-345 -265 c0 -74 -19 -85
-147 -85 -111 0 -143 11 -143 50 0 12 8 15 34 12 20 -2 44 3 58 12 23 15 27
15 38 1 20 -24 77 -19 105 10 14 13 25 29 25 35 0 5 7 10 15 10 11 0 15 -12
15 -45z m100 18 c0 -30 -56 -116 -107 -165 -158 -153 -407 -156 -568 -7 -45
42 -105 130 -105 157 0 25 20 11 40 -28 28 -55 81 -112 138 -148 191 -122 443
-54 551 148 32 60 51 76 51 43z m-830 -98 c0 -8 -7 -15 -15 -15 -8 0 -15 7
-15 15 0 8 7 15 15 15 8 0 15 -7 15 -15z m890 0 c0 -8 -7 -15 -15 -15 -8 0
-15 7 -15 15 0 8 7 15 15 15 8 0 15 -7 15 -15z m124 6 c8 -12 -73 -151 -87
-151 -7 0 -31 11 -54 24 l-41 24 -31 -32 -30 -31 25 -43 c14 -24 23 -49 21
-56 -7 -18 -135 -89 -147 -81 -5 3 -19 23 -31 45 -23 40 -33 44 -79 31 -22 -6
-26 -13 -30 -66 l-5 -60 -85 0 -85 0 -3 57 c-3 57 -3 57 -40 68 -51 14 -49 15
-72 -30 -12 -23 -27 -43 -35 -46 -7 -3 -46 13 -85 36 l-70 41 27 49 28 50 -31
31 -32 31 -44 -26 c-25 -14 -48 -26 -51 -26 -9 0 -87 133 -87 148 0 27 27 9
52 -36 46 -78 39 -75 92 -46 l48 27 46 -46 46 -46 -22 -46 c-12 -26 -20 -51
-17 -56 4 -5 25 -19 47 -30 46 -23 44 -24 81 41 13 24 22 30 35 25 9 -3 38
-11 65 -17 l47 -11 0 -54 0 -53 60 0 60 0 0 53 0 54 61 17 c33 9 65 14 70 11
5 -4 18 -24 29 -46 11 -21 22 -39 24 -39 10 0 96 53 96 58 0 4 -12 27 -26 51
l-25 44 43 44 c47 48 60 51 103 23 17 -11 35 -20 40 -20 6 0 25 27 43 60 32
58 45 70 56 51z m-814 -217 c0 -16 -16 -19 -25 -4 -8 13 4 32 16 25 5 -4 9
-13 9 -21z m502 -6 c-15 -15 -26 -4 -18 18 5 13 9 15 18 6 9 -9 9 -15 0 -24z
m-252 -73 c0 -8 -7 -15 -15 -15 -8 0 -15 7 -15 15 0 8 7 15 15 15 8 0 15 -7
15 -15z m-310 -303 l0 -58 34 4 c18 2 43 -1 55 -7 20 -11 21 -19 21 -151 l0
-140 -25 0 -25 0 0 124 c0 116 -1 125 -20 131 -11 3 -24 3 -30 0 -6 -4 -10
-58 -10 -131 l0 -124 -30 0 -30 0 0 205 0 205 30 0 c30 0 30 0 30 -58z m490
33 c0 -21 -5 -25 -30 -25 -25 0 -30 4 -30 25 0 21 5 25 30 25 25 0 30 -4 30
-25z m390 -180 l0 -205 -25 0 -25 0 0 205 0 205 25 0 25 0 0 -205z m250 180
c0 -21 -5 -25 -30 -25 -25 0 -30 4 -30 25 0 21 5 25 30 25 25 0 30 -4 30 -25z
m-1560 -7 c0 -2 16 -84 35 -183 19 -99 35 -184 35 -188 0 -5 -12 -7 -27 -5
-19 2 -29 10 -31 23 -9 63 -11 65 -51 65 -41 0 -51 -13 -51 -67 0 -19 -6 -23
-31 -23 -27 0 -30 3 -26 23 3 12 18 92 32 177 15 85 28 161 30 168 4 10 85 19
85 10z m1130 -2 c0 -2 16 -87 35 -187 19 -101 35 -185 35 -186 0 -2 -13 -3
-30 -3 -24 0 -30 4 -30 23 0 54 -10 67 -51 67 -40 0 -42 -2 -51 -65 -2 -14
-12 -21 -32 -23 -26 -3 -28 -1 -22 25 3 15 17 96 31 178 14 83 28 156 30 163
4 11 85 19 85 8z m-846 -92 c9 -8 16 -29 16 -45 0 -23 -4 -29 -23 -29 -14 0
-26 9 -32 23 -7 14 -19 22 -35 22 -25 0 -25 -1 -28 -103 l-3 -103 33 3 c26 2
34 8 36 26 3 17 9 22 25 20 16 -2 23 -11 25 -34 4 -45 -19 -64 -79 -64 -88 0
-89 2 -89 148 0 86 4 132 12 140 18 18 123 15 142 -4z m494 4 c7 -7 12 -42 12
-85 l0 -73 -60 0 -60 0 0 -39 c0 -30 5 -41 19 -46 26 -8 51 4 51 26 0 14 7 19
25 19 21 0 25 -5 25 -29 0 -44 -23 -61 -81 -61 -88 0 -89 2 -89 150 0 112 2
130 18 139 24 14 125 14 140 -1z m142 -139 l0 -150 -27 3 -28 3 -3 134 c-1 74
0 141 2 148 3 7 17 13 31 13 l25 0 0 -151z m495 82 l-35 -70 35 -80 34 -81
-28 0 c-25 0 -31 7 -60 71 -17 40 -31 77 -31 84 0 7 14 42 30 79 27 60 33 66
60 66 l30 0 -35 -69z m145 -81 l0 -150 -30 0 -30 0 0 150 0 150 30 0 30 0 0
-150z"/>
<path d="M553 1284 c-3 -8 -1 -20 5 -26 16 -16 42 -2 42 22 0 24 -38 28 -47 4z"/>
<path d="M1548 1334 c-23 -12 -28 -21 -28 -54 0 -35 5 -43 32 -60 32 -19 33
-19 63 0 24 15 31 27 33 57 2 33 -1 40 -29 56 -36 20 -36 20 -71 1z"/>
<path d="M1434 1285 c-4 -9 -2 -21 4 -27 15 -15 44 -1 40 19 -4 23 -36 29 -44
8z"/>
<path d="M232 333 c-16 -105 -16 -103 18 -103 17 0 30 5 30 11 0 26 -24 155
-30 162 -3 4 -12 -28 -18 -70z"/>
<path d="M1362 342 c-17 -107 -16 -112 12 -112 14 0 28 4 31 10 5 8 -20 169
-28 177 -2 1 -9 -32 -15 -75z"/>
<path d="M964 347 c-3 -9 -4 -28 -2 -44 3 -24 7 -28 33 -28 28 0 30 2 30 40 0
36 -3 40 -28 43 -17 2 -29 -2 -33 -11z"/>
</g>
</svg>
